{% comment %}Same composition as lib/features/home/game_thumbnail.dart; keep in sync.{% endcomment %}
<svg class="game-preview" viewBox="0 0 96 96" aria-hidden="true" focusable="false">
<rect x="0" y="0" width="96" height="96" fill="var(--preview-paper)" shape-rendering="crispEdges"/>
<rect x="24" y="0" width="24" height="24" fill="var(--preview-gray)" shape-rendering="crispEdges"/>
<rect x="29" y="18" width="14" height="3" fill="var(--preview-ink)" shape-rendering="crispEdges"/>
<path d="M31 18 L34 10 L38 10 L41 18Z" fill="var(--preview-ink)"/>
<rect x="31" y="6" width="10" height="5" fill="var(--preview-ink)" shape-rendering="crispEdges"/>
<rect x="31" y="4" width="3" height="3" fill="var(--preview-ink)" shape-rendering="crispEdges"/>
<rect x="35" y="4" width="2" height="3" fill="var(--preview-ink)" shape-rendering="crispEdges"/>
<rect x="38" y="4" width="3" height="3" fill="var(--preview-ink)" shape-rendering="crispEdges"/>
<rect x="72" y="0" width="24" height="24" fill="var(--preview-gray)" shape-rendering="crispEdges"/>
<rect x="0" y="24" width="24" height="24" fill="var(--preview-gray)" shape-rendering="crispEdges"/>
<rect x="48" y="24" width="24" height="24" fill="var(--preview-gray)" shape-rendering="crispEdges"/>
<rect x="24" y="48" width="24" height="24" fill="var(--preview-gray)" shape-rendering="crispEdges"/>
<rect x="53" y="66" width="14" height="3" fill="var(--preview-ink)" shape-rendering="crispEdges"/>
<path d="M55 66 L58 58 L62 58 L65 66Z" fill="var(--preview-ink)"/>
<circle cx="60" cy="55" r="3.36" fill="var(--preview-ink)"/>
<rect x="72" y="48" width="24" height="24" fill="var(--preview-gray)" shape-rendering="crispEdges"/>
<rect x="0" y="72" width="24" height="24" fill="var(--preview-gray)" shape-rendering="crispEdges"/>
<rect x="29" y="90" width="14" height="3" fill="var(--preview-ink)" shape-rendering="crispEdges"/>
<path d="M31 90 L34 82 L38 82 L41 90Z" fill="var(--preview-ink)"/>
<circle cx="36" cy="79" r="3.36" fill="var(--preview-ink)"/>
<rect x="48" y="72" width="24" height="24" fill="var(--preview-gray)" shape-rendering="crispEdges"/>
<rect x="0" y="0" width="96" height="1" fill="var(--preview-ink)" shape-rendering="crispEdges"/>
<rect x="0" y="95" width="96" height="1" fill="var(--preview-ink)" shape-rendering="crispEdges"/>
<rect x="0" y="0" width="1" height="96" fill="var(--preview-ink)" shape-rendering="crispEdges"/>
<rect x="95" y="0" width="1" height="96" fill="var(--preview-ink)" shape-rendering="crispEdges"/>
<rect x="24" y="0" width="1" height="96" fill="var(--preview-ink)" shape-rendering="crispEdges"/>
<rect x="48" y="0" width="1" height="96" fill="var(--preview-ink)" shape-rendering="crispEdges"/>
<rect x="72" y="0" width="1" height="96" fill="var(--preview-ink)" shape-rendering="crispEdges"/>
<rect x="0" y="24" width="96" height="1" fill="var(--preview-ink)" shape-rendering="crispEdges"/>
<rect x="0" y="48" width="96" height="1" fill="var(--preview-ink)" shape-rendering="crispEdges"/>
<rect x="0" y="72" width="96" height="1" fill="var(--preview-ink)" shape-rendering="crispEdges"/>

</svg>
